<svg width="210" height="260" viewBox="0 0 210 260" fill="none" xmlns="http://www.w3.org/2000/svg">
<path d="M10 5C10 7.76142 7.76142 10 5 10C2.23858 10 0 7.76142 0 5C0 2.23858 2.23858 0 5 0C7.76142 0 10 2.23858 10 5Z" fill="#D9D9D9"/>
<path d="M10 155C10 157.761 7.76142 160 5 160C2.23858 160 0 157.761 0 155C0 152.239 2.23858 150 5 150C7.76142 150 10 152.239 10 155Z" fill="#D9D9D9"/>
<path d="M10 55C10 57.7614 7.76142 60 5 60C2.23858 60 0 57.7614 0 55C0 52.2386 2.23858 50 5 50C7.76142 50 10 52.2386 10 55Z" fill="#D9D9D9"/>
<path d="M10 205C10 207.761 7.76142 210 5 210C2.23858 210 0 207.761 0 205C0 202.239 2.23858 200 5 200C7.76142 200 10 202.239 10 205Z" fill="#D9D9D9"/>
<path d="M10 105C10 107.761 7.76142 110 5 110C2.23858 110 0 107.761 0 105C0 102.239 2.23858 100 5 100C7.76142 100 10 102.239 10 105Z" fill="#D9D9D9"/>
<path d="M10 255C10 257.761 7.76142 260 5 260C2.23858 260 0 257.761 0 255C0 252.239 2.23858 250 5 250C7.76142 250 10 252.239 10 255Z" fill="#D9D9D9"/>
<path d="M60 5C60 7.76142 57.7614 10 55 10C52.2386 10 50 7.76142 50 5C50 2.23858 52.2386 0 55 0C57.7614 0 60 2.23858 60 5Z" fill="#D9D9D9"/>
<path d="M60 155C60 157.761 57.7614 160 55 160C52.2386 160 50 157.761 50 155C50 152.239 52.2386 150 55 150C57.7614 150 60 152.239 60 155Z" fill="#D9D9D9"/>
<path d="M60 55C60 57.7614 57.7614 60 55 60C52.2386 60 50 57.7614 50 55C50 52.2386 52.2386 50 55 50C57.7614 50 60 52.2386 60 55Z" fill="#D9D9D9"/>
<path d="M60 205C60 207.761 57.7614 210 55 210C52.2386 210 50 207.761 50 205C50 202.239 52.2386 200 55 200C57.7614 200 60 202.239 60 205Z" fill="#D9D9D9"/>
<path d="M60 105C60 107.761 57.7614 110 55 110C52.2386 110 50 107.761 50 105C50 102.239 52.2386 100 55 100C57.7614 100 60 102.239 60 105Z" fill="#D9D9D9"/>
<path d="M60 255C60 257.761 57.7614 260 55 260C52.2386 260 50 257.761 50 255C50 252.239 52.2386 250 55 250C57.7614 250 60 252.239 60 255Z" fill="#D9D9D9"/>
<path d="M110 5C110 7.76142 107.761 10 105 10C102.239 10 100 7.76142 100 5C100 2.23858 102.239 0 105 0C107.761 0 110 2.23858 110 5Z" fill="#D9D9D9"/>
<path d="M110 155C110 157.761 107.761 160 105 160C102.239 160 100 157.761 100 155C100 152.239 102.239 150 105 150C107.761 150 110 152.239 110 155Z" fill="#D9D9D9"/>
<path d="M110 55C110 57.7614 107.761 60 105 60C102.239 60 100 57.7614 100 55C100 52.2386 102.239 50 105 50C107.761 50 110 52.2386 110 55Z" fill="#D9D9D9"/>
<path d="M110 205C110 207.761 107.761 210 105 210C102.239 210 100 207.761 100 205C100 202.239 102.239 200 105 200C107.761 200 110 202.239 110 205Z" fill="#D9D9D9"/>
<path d="M110 105C110 107.761 107.761 110 105 110C102.239 110 100 107.761 100 105C100 102.239 102.239 100 105 100C107.761 100 110 102.239 110 105Z" fill="#D9D9D9"/>
<path d="M110 255C110 257.761 107.761 260 105 260C102.239 260 100 257.761 100 255C100 252.239 102.239 250 105 250C107.761 250 110 252.239 110 255Z" fill="#D9D9D9"/>
<path d="M160 5C160 7.76142 157.761 10 155 10C152.239 10 150 7.76142 150 5C150 2.23858 152.239 0 155 0C157.761 0 160 2.23858 160 5Z" fill="#D9D9D9"/>
<path d="M160 155C160 157.761 157.761 160 155 160C152.239 160 150 157.761 150 155C150 152.239 152.239 150 155 150C157.761 150 160 152.239 160 155Z" fill="#D9D9D9"/>
<path d="M160 55C160 57.7614 157.761 60 155 60C152.239 60 150 57.7614 150 55C150 52.2386 152.239 50 155 50C157.761 50 160 52.2386 160 55Z" fill="#D9D9D9"/>
<path d="M160 205C160 207.761 157.761 210 155 210C152.239 210 150 207.761 150 205C150 202.239 152.239 200 155 200C157.761 200 160 202.239 160 205Z" fill="#D9D9D9"/>
<path d="M160 105C160 107.761 157.761 110 155 110C152.239 110 150 107.761 150 105C150 102.239 152.239 100 155 100C157.761 100 160 102.239 160 105Z" fill="#D9D9D9"/>
<path d="M160 255C160 257.761 157.761 260 155 260C152.239 260 150 257.761 150 255C150 252.239 152.239 250 155 250C157.761 250 160 252.239 160 255Z" fill="#D9D9D9"/>
<path d="M210 5C210 7.76142 207.761 10 205 10C202.239 10 200 7.76142 200 5C200 2.23858 202.239 0 205 0C207.761 0 210 2.23858 210 5Z" fill="#D9D9D9"/>
<path d="M210 155C210 157.761 207.761 160 205 160C202.239 160 200 157.761 200 155C200 152.239 202.239 150 205 150C207.761 150 210 152.239 210 155Z" fill="#D9D9D9"/>
<path d="M210 55C210 57.7614 207.761 60 205 60C202.239 60 200 57.7614 200 55C200 52.2386 202.239 50 205 50C207.761 50 210 52.2386 210 55Z" fill="#D9D9D9"/>
<path d="M210 205C210 207.761 207.761 210 205 210C202.239 210 200 207.761 200 205C200 202.239 202.239 200 205 200C207.761 200 210 202.239 210 205Z" fill="#D9D9D9"/>
<path d="M210 105C210 107.761 207.761 110 205 110C202.239 110 200 107.761 200 105C200 102.239 202.239 100 205 100C207.761 100 210 102.239 210 105Z" fill="#D9D9D9"/>
<path d="M210 255C210 257.761 207.761 260 205 260C202.239 260 200 257.761 200 255C200 252.239 202.239 250 205 250C207.761 250 210 252.239 210 255Z" fill="#D9D9D9"/>
</svg>
